<svg width="60" height="60" viewBox="0 0 60 60" fill="none" xmlns="http://www.w3.org/2000/svg">
<g id="efficiency" clip-path="url(#clip0_325_91)">
<g id="Group">
<path id="Vector" d="M60 30C60 23.3297 57.8359 16.9928 53.843 11.7875H56.5993C57.5701 11.7875 58.3571 11.0005 58.3571 10.0297C58.3571 9.05894 57.5701 8.27191 56.5993 8.27191H50.6856C45.0836 2.93191 37.7671 0 30 0C23.3297 0 16.9928 2.16398 11.7875 6.15691V3.40066C11.7875 2.42988 11.0005 1.64285 10.0297 1.64285C9.05894 1.64285 8.27191 2.42988 8.27191 3.40066V9.3143C2.93191 14.9164 0 22.2329 0 30C0 36.6703 2.1641 43.0072 6.15703 48.2125H3.40066C2.42988 48.2125 1.64285 48.9995 1.64285 49.9703C1.64285 50.9411 2.42988 51.7281 3.40066 51.7281H9.31441C14.9164 57.0681 22.2329 60 30 60C36.6703 60 43.0072 57.8359 48.2125 53.843V56.5993C48.2125 57.5701 48.9995 58.3571 49.9703 58.3571C50.9411 58.3571 51.7281 57.5701 51.7281 56.5993V50.6856C57.0681 45.0834 60 37.7671 60 30ZM11.7875 49.2104V43.3411C11.7875 42.3703 11.0005 41.5833 10.0297 41.5833C9.05894 41.5833 8.27191 42.3703 8.27191 43.3411V45.1247C5.2759 40.8336 3.51562 35.6189 3.51562 30C3.51562 22.9515 6.28394 16.5377 10.7897 11.7875H16.6589C17.6297 11.7875 18.4167 11.0005 18.4167 10.0297C18.4167 9.05894 17.6297 8.27191 16.6589 8.27191H14.8754C19.1665 5.2759 24.3812 3.51562 30 3.51562C37.0485 3.51562 43.4623 6.28394 48.2125 10.7897V16.659C48.2125 17.6298 48.9995 18.4168 49.9703 18.4168C50.9411 18.4168 51.7281 17.6298 51.7281 16.659V14.8754C54.7241 19.1665 56.4844 24.3811 56.4844 30C56.4844 37.0485 53.7161 43.4623 49.2103 48.2125H43.341C42.3702 48.2125 41.5832 48.9995 41.5832 49.9703C41.5832 50.9411 42.3702 51.7281 43.341 51.7281H45.1246C40.8335 54.7241 35.6189 56.4844 30 56.4844C22.9515 56.4844 16.5379 53.7161 11.7875 49.2104Z" fill="white"/>
<path id="Vector_2" d="M30 10.6641C19.3382 10.6641 10.6641 19.3382 10.6641 30C10.6641 40.6618 19.3382 49.3359 30 49.3359C40.6618 49.3359 49.3359 40.6618 49.3359 30C49.3359 19.3382 40.6618 10.6641 30 10.6641ZM41.2996 21.4465C42.1403 20.9611 43.2154 21.2491 43.7007 22.0898C44.1861 22.9305 43.8981 24.0056 43.0574 24.491C42.2167 24.9764 41.1416 24.6884 40.6562 23.8477C40.1708 23.007 40.4589 21.9319 41.2996 21.4465ZM30 14.1797C30.9708 14.1797 31.7578 14.9667 31.7578 15.9375C31.7578 16.9083 30.9708 17.6953 30 17.6953C29.0292 17.6953 28.2422 16.9083 28.2422 15.9375C28.2422 14.9667 29.0292 14.1797 30 14.1797ZM14.1797 30C14.1797 29.0292 14.9667 28.2422 15.9375 28.2422C16.9083 28.2422 17.6953 29.0292 17.6953 30C17.6953 30.9708 16.9083 31.7578 15.9375 31.7578C14.9667 31.7578 14.1797 30.9708 14.1797 30ZM18.7004 38.5535C17.8597 39.0389 16.7846 38.7509 16.2993 37.9102C15.8139 37.0695 16.1019 35.9944 16.9426 35.509C17.7833 35.0236 18.8584 35.3116 19.3438 36.1523C19.8292 36.993 19.5411 38.0681 18.7004 38.5535ZM19.3438 23.8477C18.8584 24.6884 17.7833 24.9765 16.9426 24.491C16.1019 24.0056 15.8138 22.9305 16.2993 22.0898C16.7846 21.2491 17.8597 20.961 18.7004 21.4465C19.5411 21.9319 19.8292 23.007 19.3438 23.8477ZM24.491 43.0574C24.0056 43.8981 22.9305 44.1862 22.0898 43.7007C21.2491 43.2154 20.961 42.1403 21.4465 41.2996C21.9319 40.4587 23.007 40.1707 23.8477 40.6562C24.6884 41.1417 24.9765 42.2167 24.491 43.0574ZM23.8477 19.3438C23.007 19.8292 21.9319 19.5411 21.4465 18.7004C20.9611 17.8597 21.2491 16.7846 22.0898 16.2993C22.9305 15.8139 24.0056 16.1019 24.491 16.9426C24.9765 17.7833 24.6884 18.8584 23.8477 19.3438ZM30 45.8203C29.0292 45.8203 28.2422 45.0333 28.2422 44.0625C28.2422 43.0917 29.0292 42.3047 30 42.3047C30.9708 42.3047 31.7578 43.0917 31.7578 44.0625C31.7578 45.0333 30.9708 45.8203 30 45.8203ZM33.1806 33.866L29.1211 31.5223C28.5772 31.2083 28.2422 30.628 28.2422 30V22.9688C28.2422 21.998 29.0292 21.2109 30 21.2109C30.9708 21.2109 31.7578 21.998 31.7578 22.9688V28.9852L34.9384 30.8215C35.7791 31.3069 36.0672 32.382 35.5818 33.2227C35.0964 34.0634 34.0213 34.3514 33.1806 33.866ZM37.9102 43.7007C37.0695 44.1861 35.9944 43.8981 35.509 43.0574C35.0236 42.2166 35.3116 41.1416 36.1523 40.6562C36.993 40.1708 38.0681 40.4589 38.5535 41.2996C39.039 42.1403 38.7509 43.2154 37.9102 43.7007ZM38.5535 18.7004C38.0681 19.5412 36.993 19.8293 36.1523 19.3438C35.3116 18.8583 35.0235 17.7833 35.509 16.9426C35.9944 16.1019 37.0695 15.8138 37.9102 16.2993C38.7509 16.7846 39.039 17.8597 38.5535 18.7004ZM43.7007 37.9102C43.2154 38.7509 42.1403 39.039 41.2996 38.5535C40.4589 38.0681 40.1707 36.993 40.6562 36.1523C41.1416 35.3116 42.2167 35.0235 43.0574 35.509C43.8981 35.9944 44.1862 37.0695 43.7007 37.9102ZM44.0625 31.7578C43.0917 31.7578 42.3047 30.9708 42.3047 30C42.3047 29.0292 43.0917 28.2422 44.0625 28.2422C45.0333 28.2422 45.8203 29.0292 45.8203 30C45.8203 30.9708 45.0333 31.7578 44.0625 31.7578Z" fill="white"/>
</g>
</g>
<defs>
<clipPath id="clip0_325_91">
<rect width="60" height="60" fill="white"/>
</clipPath>
</defs>
</svg>
