<svg width="55" height="54" viewBox="0 0 55 54" fill="none" xmlns="http://www.w3.org/2000/svg">
<g id="cv" clip-path="url(#clip0_325_114)">
<g id="Group">
<g id="Group_2">
<path id="Vector" d="M7.08984 0C5.60667 0 4.4043 1.15943 4.4043 2.58963V9.84061C4.4043 10.6987 5.12574 11.3944 6.01562 11.3944H9.77539V2.58963C9.77539 1.15943 8.57302 0 7.08984 0Z" fill="url(#paint0_linear_325_114)"/>
<g id="Group_3">
<path id="Vector_2" d="M31.7969 16.6772C33.2777 16.6772 34.4824 15.5155 34.4824 14.0876V12.0159C34.4824 10.588 33.2777 9.42627 31.7969 9.42627C30.3161 9.42627 29.1113 10.588 29.1113 12.0159V14.0876C29.1113 15.5155 30.3161 16.6772 31.7969 16.6772Z" fill="url(#paint1_linear_325_114)"/>
<path id="Vector_3" d="M38.7793 22.3744C38.7793 20.9465 37.5746 19.7848 36.0938 19.7848H27.5C26.0192 19.7848 24.8145 20.9465 24.8145 22.3744V23.9282H38.7793V22.3744Z" fill="url(#paint2_linear_325_114)"/>
<path id="Vector_4" d="M44.6874 0H12.3496C12.763 0.777615 12.9979 1.65737 12.9979 2.58963V50.4461C12.9979 51.3783 12.763 52.2581 12.3496 53.0357H44.6874C47.9504 53.0357 50.5956 50.485 50.5956 47.3385V5.6972C50.5956 2.55069 47.9504 0 44.6874 0ZM21.5917 22.3744C21.5917 19.5366 23.7547 17.1774 26.5743 16.7477C26.1372 15.9531 25.8885 15.048 25.8885 14.0876V12.0159C25.8885 8.87447 28.5389 6.31871 31.7967 6.31871C35.0545 6.31871 37.7049 8.87447 37.7049 12.0159V14.0876C37.7049 15.048 37.4563 15.9531 37.0192 16.7477C39.8388 17.1774 42.0018 19.5366 42.0018 22.3744V25.482C42.0018 26.3401 41.2804 27.0358 40.3905 27.0358H23.203C22.3131 27.0358 21.5917 26.3401 21.5917 25.482V22.3744ZM42.5389 46.717H21.0545C20.1647 46.717 19.4432 46.0213 19.4432 45.1632C19.4432 44.3051 20.1647 43.6094 21.0545 43.6094H42.5389C43.4288 43.6094 44.1502 44.3051 44.1502 45.1632C44.1502 46.0213 43.4288 46.717 42.5389 46.717ZM42.5389 40.5019H21.0545C20.1647 40.5019 19.4432 39.8062 19.4432 38.9481C19.4432 38.09 20.1647 37.3943 21.0545 37.3943H42.5389C43.4288 37.3943 44.1502 38.09 44.1502 38.9481C44.1502 39.8062 43.4288 40.5019 42.5389 40.5019ZM42.5389 34.2868H21.0545C20.1647 34.2868 19.4432 33.5911 19.4432 32.733C19.4432 31.8749 20.1647 31.1792 21.0545 31.1792H42.5389C43.4288 31.1792 44.1502 31.8749 44.1502 32.733C44.1502 33.5911 43.4288 34.2868 42.5389 34.2868Z" fill="url(#paint3_linear_325_114)"/>
</g>
</g>
<path id="Vector_5" d="M7.08984 53.0357C5.60667 53.0357 4.4043 51.8763 4.4043 50.4461V43.1951C4.4043 42.337 5.12574 41.6414 6.01562 41.6414H9.77539V50.4461C9.77539 51.8763 8.57302 53.0357 7.08984 53.0357Z" fill="url(#paint4_linear_325_114)"/>
</g>
</g>
<defs>
<linearGradient id="paint0_linear_325_114" x1="5.25651" y1="1.55157" x2="11.2961" y2="8.28507" gradientUnits="userSpaceOnUse">
<stop stop-color="#E71357"/>
<stop offset="1" stop-color="#3E30E3"/>
</linearGradient>
<linearGradient id="paint1_linear_325_114" x1="29.9635" y1="10.4136" x2="33.2925" y2="16.2458" gradientUnits="userSpaceOnUse">
<stop stop-color="#E71357"/>
<stop offset="1" stop-color="#3E30E3"/>
</linearGradient>
<linearGradient id="paint2_linear_325_114" x1="27.0302" y1="20.349" x2="27.5759" y2="24.699" gradientUnits="userSpaceOnUse">
<stop stop-color="#E71357"/>
<stop offset="1" stop-color="#3E30E3"/>
</linearGradient>
<linearGradient id="paint3_linear_325_114" x1="18.418" y1="7.22187" x2="43.0943" y2="49.31" gradientUnits="userSpaceOnUse">
<stop stop-color="#E71357"/>
<stop offset="1" stop-color="#3E30E3"/>
</linearGradient>
<linearGradient id="paint4_linear_325_114" x1="5.25651" y1="43.1929" x2="11.2961" y2="49.9264" gradientUnits="userSpaceOnUse">
<stop stop-color="#E71357"/>
<stop offset="1" stop-color="#3E30E3"/>
</linearGradient>
<clipPath id="clip0_325_114">
<rect width="55" height="53.0357" fill="white"/>
</clipPath>
</defs>
</svg>
