<svg width="60" height="60" viewBox="0 0 60 60" fill="none" xmlns="http://www.w3.org/2000/svg">
<g id="select">
<g clip-path="url(#clip0_325_36)">
<g id="Group">
<path id="Vector" d="M51.0938 48.2812C53.6825 48.2812 55.7812 46.1825 55.7812 43.5938V41.25C55.7812 38.6612 53.6825 36.5625 51.0938 36.5625C48.505 36.5625 46.4062 38.6612 46.4062 41.25V43.5938C46.4062 46.1825 48.505 48.2812 51.0938 48.2812Z" fill="url(#paint0_linear_325_36)"/>
<path id="Vector_2" d="M57.4009 48.8323C55.8949 50.6424 53.6269 51.7969 51.0938 51.7969C48.5606 51.7969 46.2926 50.6424 44.7866 48.8323C43.3098 49.6214 42.3047 51.1774 42.3047 52.9688V60H58.125C59.0958 60 59.8828 59.213 59.8828 58.2422V52.9688C59.8828 51.1774 58.8777 49.6214 57.4009 48.8323Z" fill="url(#paint1_linear_325_36)"/>
<path id="Vector_3" d="M8.90625 48.2812C11.495 48.2812 13.5938 46.1825 13.5938 43.5938V41.25C13.5938 38.6612 11.495 36.5625 8.90625 36.5625C6.31746 36.5625 4.21875 38.6612 4.21875 41.25V43.5938C4.21875 46.1825 6.31746 48.2812 8.90625 48.2812Z" fill="url(#paint2_linear_325_36)"/>
<path id="Vector_4" d="M15.2134 48.8323C13.7074 50.6424 11.4394 51.7969 8.90625 51.7969C6.37313 51.7969 4.10508 50.6424 2.5991 48.8323C1.1223 49.6214 0.117188 51.1774 0.117188 52.9688V58.2422C0.117188 59.213 0.904219 60 1.875 60H17.6953V52.9688C17.6953 51.1774 16.6902 49.6214 15.2134 48.8323Z" fill="url(#paint3_linear_325_36)"/>
<path id="Vector_5" d="M30 48.2812C32.5888 48.2812 34.6875 46.1825 34.6875 43.5938V41.25C34.6875 38.6612 32.5888 36.5625 30 36.5625C27.4112 36.5625 25.3125 38.6612 25.3125 41.25V43.5938C25.3125 46.1825 27.4112 48.2812 30 48.2812Z" fill="url(#paint4_linear_325_36)"/>
<path id="Vector_6" d="M36.3071 48.8323C34.8012 50.6424 32.5331 51.7969 30 51.7969C27.4669 51.7969 25.1988 50.6424 23.6929 48.8323C22.2161 49.6214 21.2109 51.1774 21.2109 52.9688V60H38.7891V52.9688C38.7891 51.1774 37.7839 49.6214 36.3071 48.8323Z" fill="url(#paint5_linear_325_36)"/>
<path id="Vector_7" d="M30 0C23.5279 0 18.2812 5.24672 18.2812 11.7188C18.2812 17.5934 22.6041 22.458 28.2422 23.3063V27.0454L27.7274 26.5305C27.0409 25.8441 25.928 25.8441 25.2415 26.5305C24.555 27.217 24.555 28.33 25.2415 29.0164L28.7571 32.5321C29.4436 33.2186 30.5565 33.2186 31.243 32.5321L34.7586 29.0164C35.4451 28.33 35.4451 27.217 34.7586 26.5305C34.0721 25.8441 32.9592 25.8441 32.2727 26.5305L31.7578 27.0454V23.3063C37.3959 22.458 41.7188 17.5934 41.7188 11.7188C41.7188 5.24672 36.4721 0 30 0V0ZM35.3862 10.9296L29.862 16.4539C29.1755 17.1404 28.0625 17.1404 27.3761 16.4539L24.6139 13.6918C23.9275 13.0054 23.9275 11.8924 24.6139 11.2059C25.3004 10.5195 26.4134 10.5195 27.0998 11.2059L28.6191 12.7252L32.9004 8.44383C33.5869 7.75734 34.6998 7.75734 35.3863 8.44383C36.0727 9.1302 36.0727 10.2431 35.3862 10.9296Z" fill="url(#paint6_linear_325_36)"/>
</g>
</g>
</g>
<defs>
<linearGradient id="paint0_linear_325_36" x1="47.8938" y1="38.1582" x2="53.0563" y2="47.9264" gradientUnits="userSpaceOnUse">
<stop stop-color="#E71357"/>
<stop offset="1" stop-color="#3E30E3"/>
</linearGradient>
<linearGradient id="paint1_linear_325_36" x1="45.0938" y1="50.353" x2="48.0774" y2="61.4605" gradientUnits="userSpaceOnUse">
<stop stop-color="#E71357"/>
<stop offset="1" stop-color="#3E30E3"/>
</linearGradient>
<linearGradient id="paint2_linear_325_36" x1="5.70625" y1="38.1582" x2="10.8688" y2="47.9264" gradientUnits="userSpaceOnUse">
<stop stop-color="#E71357"/>
<stop offset="1" stop-color="#3E30E3"/>
</linearGradient>
<linearGradient id="paint3_linear_325_36" x1="2.90625" y1="50.353" x2="5.8899" y2="61.4605" gradientUnits="userSpaceOnUse">
<stop stop-color="#E71357"/>
<stop offset="1" stop-color="#3E30E3"/>
</linearGradient>
<linearGradient id="paint4_linear_325_36" x1="26.8" y1="38.1582" x2="31.9625" y2="47.9264" gradientUnits="userSpaceOnUse">
<stop stop-color="#E71357"/>
<stop offset="1" stop-color="#3E30E3"/>
</linearGradient>
<linearGradient id="paint5_linear_325_36" x1="24" y1="50.353" x2="26.9837" y2="61.4605" gradientUnits="userSpaceOnUse">
<stop stop-color="#E71357"/>
<stop offset="1" stop-color="#3E30E3"/>
</linearGradient>
<linearGradient id="paint6_linear_325_36" x1="22" y1="4.5" x2="37.5" y2="30.5" gradientUnits="userSpaceOnUse">
<stop stop-color="#E71357"/>
<stop offset="1" stop-color="#3E30E3"/>
</linearGradient>
<clipPath id="clip0_325_36">
<rect width="60" height="60" fill="white"/>
</clipPath>
</defs>
</svg>
