<svg width="60" height="60" viewBox="0 0 60 60" fill="none" xmlns="http://www.w3.org/2000/svg">
<g id="reduce" clip-path="url(#clip0_325_5)">
<g id="Group">
<path id="Vector" d="M59.4853 52.3118C58.7988 51.6253 57.6858 51.6253 56.9994 52.3118L55.3126 53.9985V44.1797C55.3126 43.2089 54.5255 42.4219 53.5548 42.4219C52.584 42.4219 51.7969 43.2089 51.7969 44.1797V53.9985L50.1101 52.3117C49.4237 51.6252 48.3107 51.6252 47.6242 52.3117C46.9378 52.9982 46.9378 54.1111 47.6242 54.7976L52.3117 59.4851C52.9982 60.1716 54.1112 60.1716 54.7976 59.4851L59.4851 54.7976C60.1716 54.1112 60.1716 52.9983 59.4853 52.3118Z" fill="white"/>
<path id="Vector_2" d="M9.88986 52.3118L8.20319 53.9985V44.1797C8.20319 43.2089 7.41615 42.4219 6.44537 42.4219C5.47459 42.4219 4.68756 43.2089 4.68756 44.1797V53.9985L3.00076 52.3117C2.31428 51.6252 1.20135 51.6252 0.514863 52.3117C-0.171621 52.9982 -0.171621 54.1111 0.514863 54.7976L5.20236 59.4851C5.88885 60.1716 7.00178 60.1716 7.68826 59.4851L12.3758 54.7976C13.0622 54.1111 13.0622 52.9982 12.3758 52.3117C11.6893 51.6252 10.5763 51.6253 9.88986 52.3118Z" fill="white"/>
<path id="Vector_3" d="M31.3608 26.5393V31.5161C32.2589 31.0315 32.7922 30.1366 32.9349 29.2884C33.0369 28.6824 33.0785 27.2279 31.3608 26.5393Z" fill="white"/>
<path id="Vector_4" d="M30 9.375C21.2767 9.375 14.1797 16.472 14.1797 25.1953C14.1797 33.9186 21.2767 41.0156 30 41.0156C38.7233 41.0156 45.8203 33.9186 45.8203 25.1953C45.8203 16.472 38.7233 9.375 30 9.375ZM35.824 29.7741C35.6004 31.104 34.9314 32.338 33.9401 33.2487C33.1988 33.9298 32.3234 34.3959 31.3608 34.6316V35.7422C31.3608 36.5511 30.7049 37.207 29.8959 37.207C29.087 37.207 28.4311 36.5511 28.4311 35.7422V34.7686C27.2039 34.6672 26.194 34.3434 24.7576 33.4038C24.0806 32.961 23.8908 32.0531 24.3336 31.376C24.7765 30.6989 25.6843 30.5091 26.3614 30.952C27.1914 31.495 27.723 31.7276 28.4311 31.8219V25.3863C27.4593 24.9425 26.7359 24.5166 26.1432 24.0517C24.9053 23.0808 24.3402 21.3948 24.6687 19.6519C25.0269 17.7511 26.3495 16.2389 28.1203 15.7055C28.225 15.6739 28.3286 15.6451 28.4311 15.6184V14.6484C28.4311 13.8395 29.087 13.1836 29.8959 13.1836C30.7049 13.1836 31.3608 13.8395 31.3608 14.6484V15.4561C32.8305 15.7017 33.8681 16.4223 34.3685 16.9966C34.9 17.6066 34.8362 18.532 34.2262 19.0634C33.6192 19.5923 32.6998 19.5318 32.1673 18.9298C32.1325 18.8943 31.8694 18.6391 31.3608 18.4639V23.4211C31.6376 23.5241 31.9141 23.6238 32.1857 23.7197C34.8555 24.6634 36.2837 27.04 35.824 29.7741Z" fill="white"/>
<path id="Vector_5" d="M27.5476 20.1943C27.4243 20.8481 27.5829 21.4574 27.9513 21.7464C28.0954 21.8594 28.2575 21.9701 28.431 22.0786V18.7701C27.9193 19.128 27.6406 19.7008 27.5476 20.1943Z" fill="white"/>
<path id="Vector_6" d="M55.1953 25.1953C55.1953 11.2804 43.915 0 30 0C16.085 0 4.80469 11.2804 4.80469 25.1953C4.80469 39.1103 16.085 50.3906 30 50.3906C43.915 50.3906 55.1953 39.1103 55.1953 25.1953ZM30 44.5312C19.3382 44.5312 10.6641 35.8571 10.6641 25.1953C10.6641 14.5335 19.3382 5.85938 30 5.85938C40.6618 5.85938 49.3359 14.5335 49.3359 25.1953C49.3359 35.8571 40.6618 44.5312 30 44.5312Z" fill="white"/>
</g>
</g>
<defs>
<clipPath id="clip0_325_5">
<rect width="60" height="60" fill="white"/>
</clipPath>
</defs>
</svg>
