<svg width="56" height="54" viewBox="0 0 56 54" fill="none" xmlns="http://www.w3.org/2000/svg">
<g id="cv" clip-path="url(#clip0_325_103)">
<g id="Group">
<g id="Group_2">
<path id="Vector" d="M7.38672 0C5.90354 0 4.70117 1.15943 4.70117 2.58963V9.84061C4.70117 10.6987 5.42262 11.3944 6.3125 11.3944H10.0723V2.58963C10.0723 1.15943 8.86989 0 7.38672 0Z" fill="white"/>
<g id="Group_3">
<path id="Vector_2" d="M32.0938 16.6772C33.5746 16.6772 34.7793 15.5155 34.7793 14.0876V12.0159C34.7793 10.588 33.5746 9.42627 32.0938 9.42627C30.6129 9.42627 29.4082 10.588 29.4082 12.0159V14.0876C29.4082 15.5155 30.6129 16.6772 32.0938 16.6772Z" fill="white"/>
<path id="Vector_3" d="M39.0762 22.3744C39.0762 20.9465 37.8714 19.7848 36.3906 19.7848H27.7969C26.3161 19.7848 25.1113 20.9465 25.1113 22.3744V23.9282H39.0762V22.3744Z" fill="white"/>
<path id="Vector_4" d="M44.9842 0H12.6465C13.0598 0.777615 13.2948 1.65737 13.2948 2.58963V50.4461C13.2948 51.3783 13.0598 52.2581 12.6465 53.0357H44.9842C48.2473 53.0357 50.8924 50.485 50.8924 47.3385V5.6972C50.8924 2.55069 48.2473 0 44.9842 0ZM21.8885 22.3744C21.8885 19.5366 24.0516 17.1774 26.8712 16.7477C26.4341 15.9531 26.1854 15.048 26.1854 14.0876V12.0159C26.1854 8.87447 28.8358 6.31871 32.0936 6.31871C35.3514 6.31871 38.0018 8.87447 38.0018 12.0159V14.0876C38.0018 15.048 37.7531 15.9531 37.316 16.7477C40.1356 17.1774 42.2987 19.5366 42.2987 22.3744V25.482C42.2987 26.3401 41.5772 27.0358 40.6874 27.0358H23.4999C22.61 27.0358 21.8885 26.3401 21.8885 25.482V22.3744ZM42.8358 46.717H21.3514C20.4615 46.717 19.7401 46.0213 19.7401 45.1632C19.7401 44.3051 20.4615 43.6094 21.3514 43.6094H42.8358C43.7257 43.6094 44.4471 44.3051 44.4471 45.1632C44.4471 46.0213 43.7257 46.717 42.8358 46.717ZM42.8358 40.5019H21.3514C20.4615 40.5019 19.7401 39.8062 19.7401 38.9481C19.7401 38.09 20.4615 37.3943 21.3514 37.3943H42.8358C43.7257 37.3943 44.4471 38.09 44.4471 38.9481C44.4471 39.8062 43.7257 40.5019 42.8358 40.5019ZM42.8358 34.2868H21.3514C20.4615 34.2868 19.7401 33.5911 19.7401 32.733C19.7401 31.8749 20.4615 31.1792 21.3514 31.1792H42.8358C43.7257 31.1792 44.4471 31.8749 44.4471 32.733C44.4471 33.5911 43.7257 34.2868 42.8358 34.2868Z" fill="white"/>
</g>
</g>
<path id="Vector_5" d="M7.38672 53.0357C5.90354 53.0357 4.70117 51.8763 4.70117 50.4461V43.1951C4.70117 42.337 5.42262 41.6413 6.3125 41.6413H10.0723V50.4461C10.0723 51.8763 8.86989 53.0357 7.38672 53.0357Z" fill="white"/>
</g>
</g>
<defs>
<clipPath id="clip0_325_103">
<rect width="55" height="53.0357" fill="white" transform="translate(0.296875)"/>
</clipPath>
</defs>
</svg>
