<svg width="60" height="60" viewBox="0 0 60 60" fill="none" xmlns="http://www.w3.org/2000/svg">
<g id="partnership" clip-path="url(#clip0_325_75)">
<g id="Group">
<g id="Vector">
<path d="M20.625 24.6094H39.375C40.6695 24.6094 41.7188 23.5601 41.7188 22.2656V16.9922H31.7578C31.7578 17.963 30.9708 18.75 30 18.75C29.0292 18.75 28.2422 17.963 28.2422 16.9922H18.2812V22.2656C18.2812 23.5601 19.3305 24.6094 20.625 24.6094Z" fill="#2C2C2C"/>
<path d="M20.625 24.6094H39.375C40.6695 24.6094 41.7188 23.5601 41.7188 22.2656V16.9922H31.7578C31.7578 17.963 30.9708 18.75 30 18.75C29.0292 18.75 28.2422 17.963 28.2422 16.9922H18.2812V22.2656C18.2812 23.5601 19.3305 24.6094 20.625 24.6094Z" fill="white"/>
</g>
<g id="Vector_2">
<path d="M30 11.7188C30.9708 11.7188 31.7578 12.5058 31.7578 13.4766H41.7188V9.375C41.7188 8.08055 40.6695 7.03125 39.375 7.03125H36.4453V4.10156C36.4453 1.83996 34.6054 0 32.3438 0H27.6562C25.3946 0 23.5547 1.83996 23.5547 4.10156V7.03125H20.625C19.3305 7.03125 18.2812 8.08055 18.2812 9.375V13.4766H28.2422C28.2422 12.5058 29.0292 11.7188 30 11.7188ZM27.0703 4.10156C27.0703 3.77848 27.3332 3.51562 27.6562 3.51562H32.3438C32.6668 3.51562 32.9297 3.77848 32.9297 4.10156V7.03125H27.0703V4.10156Z" fill="#2C2C2C"/>
<path d="M30 11.7188C30.9708 11.7188 31.7578 12.5058 31.7578 13.4766H41.7188V9.375C41.7188 8.08055 40.6695 7.03125 39.375 7.03125H36.4453V4.10156C36.4453 1.83996 34.6054 0 32.3438 0H27.6562C25.3946 0 23.5547 1.83996 23.5547 4.10156V7.03125H20.625C19.3305 7.03125 18.2812 8.08055 18.2812 9.375V13.4766H28.2422C28.2422 12.5058 29.0292 11.7188 30 11.7188ZM27.0703 4.10156C27.0703 3.77848 27.3332 3.51562 27.6562 3.51562H32.3438C32.6668 3.51562 32.9297 3.77848 32.9297 4.10156V7.03125H27.0703V4.10156Z" fill="white"/>
</g>
<g id="Vector_3">
<path d="M58.2424 22.2542H45.2346V22.2656C45.2346 25.4965 42.6061 28.125 39.3752 28.125H23.6816L16.7119 35.0942C15.3389 36.467 15.3389 38.693 16.7118 40.066C18.0847 41.4389 20.3106 41.4389 21.6836 40.0661L27.6387 34.1109C31.0493 36.3666 35.6992 35.9942 38.7005 32.9929C39.3869 32.3064 40.4999 32.3064 41.1864 32.9929C41.8728 33.6793 41.8728 34.7923 41.1864 35.4788C39.8637 36.8015 38.2932 37.7654 36.6105 38.3605L47.4016 49.1516L49.2764 47.277H58.2424C59.2132 47.277 60.0002 46.4899 60.0002 45.5192V24.012C60.0002 23.0412 59.2132 22.2542 58.2424 22.2542Z" fill="#2C2C2C"/>
<path d="M58.2424 22.2542H45.2346V22.2656C45.2346 25.4965 42.6061 28.125 39.3752 28.125H23.6816L16.7119 35.0942C15.3389 36.467 15.3389 38.693 16.7118 40.066C18.0847 41.4389 20.3106 41.4389 21.6836 40.0661L27.6387 34.1109C31.0493 36.3666 35.6992 35.9942 38.7005 32.9929C39.3869 32.3064 40.4999 32.3064 41.1864 32.9929C41.8728 33.6793 41.8728 34.7923 41.1864 35.4788C39.8637 36.8015 38.2932 37.7654 36.6105 38.3605L47.4016 49.1516L49.2764 47.277H58.2424C59.2132 47.277 60.0002 46.4899 60.0002 45.5192V24.012C60.0002 23.0412 59.2132 22.2542 58.2424 22.2542Z" fill="white"/>
</g>
<g id="Vector_4">
<path d="M28.3527 38.3685L24.1692 42.552C21.4234 45.2978 16.9714 45.2978 14.2256 42.552C11.4797 39.806 11.4798 35.3541 14.2257 32.6083L18.9536 27.8808C16.5347 27.1595 14.7656 24.9158 14.7656 22.2656V22.2542H1.75781C0.787031 22.2542 0 23.0412 0 24.012V45.5189C0 46.4897 0.787031 47.2767 1.75781 47.2767H10.7239L18.8134 55.3662C21.8014 58.3544 25.7742 60 30 60C34.2258 60 38.1986 58.3544 41.1866 55.3663L44.9155 51.6375L32.3537 39.0757C30.9773 39.0611 29.6282 38.8222 28.3527 38.3685Z" fill="#2C2C2C"/>
<path d="M28.3527 38.3685L24.1692 42.552C21.4234 45.2978 16.9714 45.2978 14.2256 42.552C11.4797 39.806 11.4798 35.3541 14.2257 32.6083L18.9536 27.8808C16.5347 27.1595 14.7656 24.9158 14.7656 22.2656V22.2542H1.75781C0.787031 22.2542 0 23.0412 0 24.012V45.5189C0 46.4897 0.787031 47.2767 1.75781 47.2767H10.7239L18.8134 55.3662C21.8014 58.3544 25.7742 60 30 60C34.2258 60 38.1986 58.3544 41.1866 55.3663L44.9155 51.6375L32.3537 39.0757C30.9773 39.0611 29.6282 38.8222 28.3527 38.3685Z" fill="white"/>
</g>
</g>
</g>
<defs>
<clipPath id="clip0_325_75">
<rect width="60" height="60" fill="white"/>
</clipPath>
</defs>
</svg>
