<svg width="60" height="60" viewBox="0 0 60 60" fill="none" xmlns="http://www.w3.org/2000/svg">
<g id="purchasing" clip-path="url(#clip0_325_61)">
<g id="Group">
<g id="Group_2">
<path id="Vector" d="M51.2821 19.4992C50.5956 18.8127 49.4826 18.8127 48.7962 19.4992L47.1094 21.186V13.7109C47.1094 12.7402 46.3223 11.9531 45.3516 11.9531H37.1484C36.1777 11.9531 35.3906 12.7402 35.3906 13.7109C35.3906 14.6817 36.1777 15.4688 37.1484 15.4688H43.5937V21.186L41.9071 19.4993C41.2206 18.8128 40.1077 18.8128 39.4212 19.4993C38.7347 20.1858 38.7347 21.2987 39.4212 21.9852L44.1087 26.6727C44.7951 27.3592 45.9081 27.3592 46.5946 26.6727L51.2821 21.9852C51.9684 21.2987 51.9684 20.1857 51.2821 19.4992Z" fill="url(#paint0_linear_325_61)"/>
<g id="Group_3">
<path id="Vector_2" d="M13.7593 11.3509C13.6408 11.9794 13.8004 12.5706 14.1657 12.8571C14.3512 13.0026 14.5669 13.1436 14.8028 13.2803V9.87836C14.1842 10.197 13.8588 10.8224 13.7593 11.3509Z" fill="url(#paint1_linear_325_61)"/>
<path id="Vector_3" d="M15.8203 0C7.09699 0 0 7.09699 0 15.8203C0 24.5436 7.09699 31.6406 15.8203 31.6406C24.5436 31.6406 31.6406 24.5436 31.6406 15.8203C31.6406 7.09699 24.5436 0 15.8203 0ZM21.1159 19.8688C20.8048 21.7196 19.3746 23.5963 17.1469 24.1028V25.1953C17.1469 25.8425 16.6222 26.3672 15.975 26.3672C15.3278 26.3672 14.8031 25.8425 14.8031 25.1953V24.2084C13.6778 24.1302 12.777 23.8569 11.4789 23.0078C10.9372 22.6534 10.7855 21.9272 11.1397 21.3855C11.494 20.8439 12.2202 20.6921 12.762 21.0464C13.5796 21.5812 14.0767 21.7862 14.803 21.8582V15.9057C13.9113 15.5037 13.2533 15.12 12.7195 14.7013C11.6575 13.8683 11.1735 12.4182 11.4564 10.9168C11.7657 9.27527 12.9068 7.96969 14.4342 7.50949C14.5591 7.47188 14.6817 7.43953 14.8031 7.40965V6.44531C14.8031 5.79809 15.3278 5.27344 15.975 5.27344C16.6222 5.27344 17.1469 5.79809 17.1469 6.44531V7.27383C18.4752 7.46742 19.4089 8.10914 19.8524 8.61809C20.2775 9.10605 20.2267 9.84621 19.7387 10.2715C19.2523 10.6952 18.5154 10.646 18.0895 10.1626C18.0675 10.14 17.7566 9.83297 17.1469 9.66656V14.3337C17.4219 14.4368 17.6972 14.5362 17.9668 14.6316C20.2774 15.4481 21.5135 17.5039 21.1159 19.8688Z" fill="url(#paint2_linear_325_61)"/>
<path id="Vector_4" d="M17.1854 16.8411C17.172 16.8364 17.1597 16.8318 17.1465 16.8271V21.6477C18.0987 21.2266 18.6616 20.3286 18.8042 19.4802C18.8812 19.0225 18.9917 17.4796 17.1854 16.8411Z" fill="url(#paint3_linear_325_61)"/>
</g>
<g id="Group_4">
<path id="Vector_5" d="M47.1094 38.1782V31.875H43.5938V38.1782L45.3516 39.936L47.1094 38.1782Z" fill="url(#paint4_linear_325_61)"/>
<path id="Vector_6" d="M58.2422 31.875H50.625V38.9062C50.625 39.3724 50.4398 39.8196 50.1102 40.1493L46.5946 43.6649C45.9081 44.3514 44.7952 44.3514 44.1087 43.6649L40.593 40.1493C40.2633 39.8196 40.0781 39.3724 40.0781 38.9062V31.875H32.4609C31.4902 31.875 30.7031 32.662 30.7031 33.6328V58.2422C30.7031 59.213 31.4902 60 32.4609 60H58.2422C59.213 60 60 59.213 60 58.2422V33.6328C60 32.662 59.213 31.875 58.2422 31.875Z" fill="url(#paint5_linear_325_61)"/>
</g>
</g>
<path id="Vector_7" d="M9.88978 43.0791C10.5763 43.7656 11.6892 43.7656 12.3757 43.0791L14.0625 41.3924V48.8674C14.0625 49.8382 14.8495 50.6252 15.8203 50.6252H24.0234C24.9942 50.6252 25.7812 49.8382 25.7812 48.8674C25.7812 47.8967 24.9942 47.1096 24.0234 47.1096H17.5781V41.3924L19.2648 43.0791C19.9513 43.7656 21.0642 43.7656 21.7507 43.0791C22.4372 42.3926 22.4372 41.2797 21.7507 40.5932L17.0632 35.9057C16.3767 35.2192 15.2638 35.2192 14.5773 35.9057L9.88978 40.5932C9.20341 41.2797 9.20341 42.3927 9.88978 43.0791Z" fill="url(#paint6_linear_325_61)"/>
</g>
</g>
<defs>
<linearGradient id="paint0_linear_325_61" x1="37.9937" y1="14.0276" x2="43.52" y2="28.1035" gradientUnits="userSpaceOnUse">
<stop stop-color="#E71357"/>
<stop offset="1" stop-color="#3E30E3"/>
</linearGradient>
<linearGradient id="paint1_linear_325_61" x1="13.8924" y1="10.3416" x2="15.6352" y2="11.6528" gradientUnits="userSpaceOnUse">
<stop stop-color="#E71357"/>
<stop offset="1" stop-color="#3E30E3"/>
</linearGradient>
<linearGradient id="paint2_linear_325_61" x1="5.02031" y1="4.3085" x2="17.1226" y2="32.9324" gradientUnits="userSpaceOnUse">
<stop stop-color="#E71357"/>
<stop offset="1" stop-color="#3E30E3"/>
</linearGradient>
<linearGradient id="paint3_linear_325_61" x1="17.4151" y1="17.4836" x2="19.9416" y2="19.5818" gradientUnits="userSpaceOnUse">
<stop stop-color="#E71357"/>
<stop offset="1" stop-color="#3E30E3"/>
</linearGradient>
<linearGradient id="paint4_linear_325_61" x1="44.1516" y1="32.9727" x2="48.4475" y2="37.404" gradientUnits="userSpaceOnUse">
<stop stop-color="#E71357"/>
<stop offset="1" stop-color="#3E30E3"/>
</linearGradient>
<linearGradient id="paint5_linear_325_61" x1="35.3516" y1="35.7048" x2="45.8031" y2="61.4544" gradientUnits="userSpaceOnUse">
<stop stop-color="#E71357"/>
<stop offset="1" stop-color="#3E30E3"/>
</linearGradient>
<linearGradient id="paint6_linear_325_61" x1="11.9781" y1="37.4653" x2="17.5044" y2="51.5412" gradientUnits="userSpaceOnUse">
<stop stop-color="#E71357"/>
<stop offset="1" stop-color="#3E30E3"/>
</linearGradient>
<clipPath id="clip0_325_61">
<rect width="60" height="60" fill="white"/>
</clipPath>
</defs>
</svg>
